
<svg width="32" height="32" viewBox="0 0 32 32" fill="none" xmlns="http://www.w3.org/2000/svg">
  <rect width="32" height="32" rx="16" fill="#6366F1"/>
  <path d="M16 8C9.373 8 4 13.373 4 20C4 22.8213 5.02133 25.3627 6.73333 27.3333L5.41733 31.4427L9.52667 30.1267C11.4973 31.8387 13.6653 32.6667 16 32.6667C22.627 32.6667 28 27.2937 28 20C28 12.7063 22.627 8 16 8ZM21.3333 21.3333H17.3333V25.3333C17.3333 26.0693 16.736 26.6667 16 26.6667C15.264 26.6667 14.6667 26.0693 14.6667 25.3333V21.3333H10.6667C9.93067 21.3333 9.33333 20.736 9.33333 20C9.33333 19.264 9.93067 18.6667 10.6667 18.6667H14.6667V14.6667C14.6667 13.9307 15.264 13.3333 16 13.3333C16.736 13.3333 17.3333 13.9307 17.3333 14.6667V18.6667H21.3333C22.0693 18.6667 22.6667 19.264 22.6667 20C22.6667 20.736 22.0693 21.3333 21.3333 21.3333Z" fill="white"/>
</svg>
